<svg version="1" xmlns="http://www.w3.org/2000/svg" width="288" height="288" viewBox="0 0 216.000000 216.000000"><path d="M129.1 27.6c-14.2 3.8-26.2 15-31.3 29.2-2.6 7.4-2.8 19.5-.4 27.6 1.7 5.6 5.5 12.8 7.5 14 1.2.8 4.2-.4 3.6-1.4-.3-.5.4-2.9 1.5-5.4 1.8-4.4 2.1-4.6 6.1-4.6 3.7 0 5.1.8 12.6 7.1 4.6 3.9 8.7 7.7 9 8.5.2.7-.5 3.1-1.8 5.4-2.6 4.5-4.1 4.8-10.7 2.1-4.3-1.7-4.3-1.7-2.2-3.6 1.1-1 2-2.8 2-3.9 0-1.8-.4-1.6-2.1 1.1l-2.1 3.3H87.5c-32.2 0-33.3-.1-36.1-2.1-2.6-1.9-2.5-1.8.4 1L55 109h31c18.5 0 31 .4 31 .9s.9 1.3 2 1.6c3.3 1 2.3 2.5-1.8 2.5h-3.8l-7.2 16.7c-4 9.3-7.6 17.4-8.1 18.1-.5.8-2.2 1.2-4.4 1l-3.5-.3 6.4-16c8.7-21.7 8.4-19.7 3.2-19.3l-4.3.3-7.4 17.7-7.4 17.8h-8.3c-6.2 0-8.4-.3-8.4-1.3 0-.7 1.5-4.5 3.4-8.4 3.9-8 6.8-10.3 13.5-10.3 4.2 0 6.5-2.1 7.3-6.5.3-1.7-.3-2-3.9-2.3-10.8-.8-17.7 4.1-23.6 16.7-5.2 11.1-5.7 14.8-2.3 18 2.2 2 3.9 2.5 10.5 2.9l7.9.4-3.4 8c-1.9 4.4-3.4 8.4-3.4 8.9 0 .6 1.9.9 4.2.7l4.2-.3 3.7-8.5 3.6-8.5 4.2-.3c2.2-.2 4.1-.1 4.1.2 0 .3-1.3 4-3 8.3-1.6 4.2-3 8.1-3 8.5 0 .5 1.8.8 3.9.8h3.9l3.5-8.8c2.4-6 4.1-8.8 5.3-9.1 2.8-.5 4.1-1.8 5.3-5.2.9-2.6.8-3.1-.9-3.7-1.8-.7-1.4-2 6-18.1 4.4-9.6 7.7-17.7 7.5-18.1-.3-.5 1.8.1 4.7 1.2 7.6 2.9 17.1 3.4 25.9 1.4 14.1-3.1 24.9-11.8 31.5-25.1 6.2-12.5 5.9-27.8-.8-40.9-2.7-5.2-10.9-13.8-16.7-17.5-10.3-6.5-25.9-8.8-38-5.5zm32.4 7.5c3.4 1.6 8.1 4.7 10.5 6.8 4.4 3.8 4.4 3.9 2.7 5.8-1.7 2-1.8 2-8.5.2-7.1-2-20.2-10.1-20.2-12.4 0-2.2 4.2-4.6 7-4 1.4.3 5.2 1.9 8.5 3.6zm-11.4 7.4c4 2.5 7.6 4.8 8.1 5.3.4.4-.7 3.2-2.5 6.2l-3.2 5.4-13 2.8c-12 2.5-13.2 2.6-16.2 1.1-6.1-2.8-6.2-3.6-1.5-12.8 4.6-9 4.1-8.6 16.7-11.4 2.2-.5 4.1-.9 4.2-1 0-.1 3.4 1.9 7.4 4.4zm-27.6-1.4c1.1 1.7-6.9 15.6-11.8 20.6-5.2 5.3-7.6 6.4-9.5 4-1.9-2.3 3.4-14.1 9.2-20.6 4.5-5 10.3-7 12.1-4zm58.8 13.1c2.1 4.3 4.4 15.5 3.3 16.5-1.9 1.9-4.1-1.7-5.2-8.3-.6-3.8-1.4-8.2-1.9-9.8-1.1-4.1 1.5-3 3.8 1.6zm-21.4 14.6l6.3 5.7-3.6 9c-2 5-4.6 9.8-5.8 10.8-1.1.9-5.1 2.7-8.9 3.8-8.1 2.5-7.6 2.6-17.8-6.8l-6.4-5.9 1.7-7.1c1-4 2.3-7.9 3-8.8 1-1.4 18-5.9 24.1-6.4.6 0 3.9 2.5 7.4 5.7zm-57.3 1c.7.4 2.2 4 3.4 8 1.9 6.2 2 7.7 1 10.2-.7 1.7-1.6 3-2 3-1.5 0-4-8.1-4.6-15-.7-6.8-.3-7.8 2.2-6.2zm78.9 4.1c2.4 2.6 2.7 3.6 2.2 6.7-.9 5.4-5.1 13.5-9.7 18.5l-3.9 4.4-3.8-2.1c-6.1-3.5-6.1-4.1-1.3-15.2 3.7-8.5 5-10.4 8.4-12.6 2.2-1.4 4.3-2.6 4.6-2.6.4 0 1.9 1.3 3.5 2.9zM16.2 74.5c-2.3 4.7-4.2 8.7-4.2 8.9 0 1.1 26.6.3 27.3-.8.6-.8 1-.8 1.4.1.8 2 11.9 1.7 12.7-.3 1-2.5.8-2.7-2.4-2.2-2.7.4-3 .2-3-2.4 0-1.8 1.2-4.2 3.5-6.7C53.4 69 55 67 55 66.6c0-1.1-5.6-.6-6.8.6-.9.9-1.2.9-1.2 0 0-.7-1.3-1.2-3-1.2-2.8 0-3.3.7-6.7 7.5-2.5 5-4.2 7.4-5.1 7-.8-.3-2.2-.5-3.3-.5-1.7 0-1.8-.3-.8-2.3.7-1.2 1.2-2.4 1.2-2.7 0-.3.6-1.5 1.4-2.7 2.7-4.1 1.4-5.8-4.7-6.1l-5.5-.3-4.3 8.6z"/><path d="M58.6 73.8C57.2 78 56 82.1 56 82.7c0 1.8 14.6 1.5 16.1-.3 1.1-1.4.9-1.6-2.9-2.6-.9-.2 0-2.3 2.7-6.6 2.3-3.4 4.1-6.5 4.1-6.7 0-.3-1.6-.5-3.5-.5s-3.5.4-3.5 1c0 .5-.5 1-1.1 1-.5 0-.7-.5-.4-1 .4-.6-.8-1-2.9-1-3.4 0-3.5.1-6 7.8zM77.6 73.8c-1.4 4.2-2.6 8.3-2.6 9 0 .9 2 1.2 7.7 1 6.5-.3 7.8-.6 8.1-2.1.2-1.2-.3-1.7-1.7-1.7-1.2 0-2.1-.2-2.1-.6 0-.3 1.8-3.2 4-6.4s4-6.1 4-6.4c0-1.2-6.9-.5-7.4.6-.5 1-.7 1-1.2 0-.3-.6-1.8-1.2-3.4-1.2-2.6 0-3 .5-5.4 7.8zM92 89.6c0 .6.7 1.7 1.5 2.4s1.5 1.6 1.5 2.1-11.6.9-25.8.9c-22.5 0-26.1-.2-28.2-1.7l-2.5-1.7 1.9 2.2C42.3 96 42.8 96 69.7 96c16.4 0 27.3-.4 27.3-.9 0-1.4-4.9-6.8-5-5.5zM57 113.9c-9.5 2.9-16 10.2-16 18.1 0 1.5.9 4.7 2 7.1 4.2 9.3 1.7 22.1-5.1 27-3 2.1-4.6 2.4-15.2 2.7l-11.7.4-1.6 3c-1 2-1.2 3.4-.6 4 .6.6 6.2.9 13.9.6 14.3-.4 18.7-1.9 23.7-7.9 7.3-8.6 9.1-17.8 5.6-27.4-1.3-3.3-2.5-7.8-2.7-10.1-.4-3.6-.1-4.4 2.7-6.7 2.7-2.3 4-2.7 10-2.7 7.2 0 8.4-.6 9.5-5.1.6-2.3.3-2.7-2.6-3.3-4-.8-8.7-.7-11.9.3zM165.9 116.8c-2.4 1.6-5.6 4.7-7.2 7-4.2 6.5-28.7 62.3-28.7 65.6 0 1.2 1 1.6 4 1.6 4 0 4.1-.1 6.9-6.3 1.5-3.4 4.5-10.6 6.6-16l3.8-9.7h9.4c8.1 0 9.6-.3 11.4-2.1 1.1-1.1 1.9-3 1.7-4.2-.3-2-1-2.2-9.5-2.7l-9.2-.5 4.2-9.6c2.3-5.2 5-10.8 6-12.3 2.5-3.8 7.4-5.6 15.1-5.6 5.6 0 6.7-.3 8-2.2.9-1.2 1.6-3 1.6-4 0-1.6-1.1-1.8-9.8-1.8-9 0-10.2.2-14.3 2.8zM125.5 124c-2.4 4.6-2 6 1.8 6 2.6 0 3.6-.6 4.5-2.5 2.1-4.6 1.6-6.5-1.8-6.5-2.3 0-3.3.7-4.5 3zM141.4 124.5c-2 4.9-1.8 5.5 2.1 5.5 3 0 3.7-.4 5-3.6 1.8-4.4 1.3-5.4-2.6-5.4-2.5 0-3.3.6-4.5 3.5zM118 141c-3 5.9-12 27-12 28.1 0 .6 1.8.9 4.2.7l4.3-.3 6.2-14.5c3.4-8 6.1-15.1 6-15.9-.1-.9-1.5-1.4-3.6-1.5-2.8-.1-3.6.4-5.1 3.4z"/><path d="M134.5 140c-.7 1.4-4.3 9.9-7.9 18.9-9.1 22.8-11.5 25.1-26.4 25.1-9.5 0-10.2.4-10.2 5.2 0 1.9.6 1.9 12.3 1.6 11.5-.3 12.6-.5 16.5-3.1 6.5-4.3 10.4-10.6 17.4-28.6 9-22.9 8.6-20.8 3.7-21.3-3.5-.3-4.2 0-5.4 2.2zM38.3 154l-1.1 3H19c-11.8 0-17.9.3-17.5 1 .4.6 7.5 1 18 1 14.4 0 17.6-.3 18.9-1.6.9-.8 1.6-1.9 1.6-2.4s.3-1.5.6-2.4c.3-.9.2-1.6-.3-1.6s-1.4 1.3-2 3zM213.8 153.7l-.3 2.8-18.2.3c-11.1.1-18.3.6-18.3 1.2s6.9 1 17.9 1c19.5 0 21.1-.4 21.1-5.6 0-3.3-1.8-3-2.2.3zM66.9 166c-1.3 2-2.3 2.2-8.7 2.2-4 0-7.2.4-7.2.9s3.6.9 8 .9c7 0 8.1-.2 9-2.1 1.6-2.9.7-4.6-1.1-1.9zM185.5 166.1c-1 2.1-1.6 2.2-17.7 2.1-10.3-.1-16.8.2-16.8.8 0 .6 6.8 1 17.5 1 16.2 0 17.5-.1 18.5-1.9.5-1.1 1-2.4 1-3 0-1.8-1.5-1.2-2.5 1z"/></svg>